<svg width="24" height="24" viewBox="0 0 24 24" fill="none" xmlns="http://www.w3.org/2000/svg">
<path d="M19.08 12.3623C19.08 11.9223 18.7435 11.5858 18.3035 11.5858C17.8635 11.5858 17.5271 11.9223 17.5271 12.3623C17.5271 15.3905 15.0682 17.8494 12.04 17.8494C9.01177 17.8494 6.55294 15.3905 6.55294 12.3623C6.55294 11.9223 6.21647 11.5858 5.77647 11.5858C5.33647 11.5858 5 11.9223 5 12.3623C5 15.9599 7.69177 18.9882 11.2635 19.3764V21.447H8.44235C8.00235 21.447 7.66588 21.7835 7.66588 22.2235C7.66588 22.6635 8.00235 23 8.44235 23H15.6376C16.0776 23 16.4141 22.6635 16.4141 22.2235C16.4141 21.7835 16.0776 21.447 15.6376 21.447H12.8165V19.3764C16.3882 18.9882 19.08 15.9599 19.08 12.3623Z" fill="#1E1E1E"/>
<path d="M12.0399 1C9.6587 1 7.71753 2.94118 7.71753 5.32235V12.3365C7.71753 14.7435 9.6587 16.6588 12.0399 16.6847C14.421 16.6847 16.3622 14.7435 16.3622 12.3624V5.32235C16.3622 2.94118 14.421 1 12.0399 1Z" fill="#1E1E1E"/>
</svg>
