<svg width="512" height="496" viewBox="0 0 512 496" fill="none" xmlns="http://www.w3.org/2000/svg">
<path d="M352.137 229.133L41.7024 34.1632C18.7648 19.1104 0 30.1952 0 58.7563V437.235C0 465.805 18.7648 476.873 41.7024 461.837L352.137 266.867C352.137 266.867 363.324 258.999 363.324 248C363.324 237.001 352.137 229.133 352.137 229.133ZM448 0.354126C410.121 0.354126 384 12.0021 384 49.8816V446.11C384 483.981 410.121 495.637 448 495.637C485.879 495.637 512 483.989 512 446.11V49.8816C512 12.0021 485.879 0.354126 448 0.354126Z" fill="#1E1E1E"/>
</svg>
