<svg width="261" height="289" viewBox="0 0 261 289" fill="none" xmlns="http://www.w3.org/2000/svg">
<path d="M141.876 30.4248L156.909 17.5344C160.923 13.9163 161.322 7.75805 157.808 3.65229C154.294 -0.453479 148.148 -1.01044 143.953 2.39676L109.074 32.2933C106.864 34.1866 105.591 36.9516 105.591 39.8621C105.591 42.7726 106.864 45.5376 109.074 47.4309L143.953 77.3275C146.643 79.7521 150.437 80.5266 153.862 79.3504C157.287 78.1743 159.804 75.2327 160.438 71.6671C161.071 68.1015 159.719 64.4731 156.909 62.1899L143.4 50.6149C201.86 57.5427 244.41 109.407 239.781 168.094C235.152 226.78 184.997 271.332 126.174 269.009C67.3511 266.686 20.8655 218.317 20.8793 159.448C20.7871 134.785 29.1019 110.827 44.4527 91.5234C46.7143 88.7349 47.3011 84.9454 45.9888 81.6035C44.6765 78.2615 41.668 75.8838 38.1133 75.3793C34.5586 74.8748 31.0072 76.3214 28.8168 79.1661C10.6714 101.981 0.841699 130.298 0.948245 159.448C0.933223 229.523 56.6408 286.908 126.685 288.972C196.73 291.035 255.719 237.029 259.829 167.075C263.939 97.1204 211.68 36.5779 141.876 30.4248V30.4248Z" fill="black"/>
<path d="M79.1776 77.3275C81.8676 79.7521 85.6611 80.5265 89.0862 79.3504C92.5112 78.1743 95.0287 75.2327 95.6617 71.6671C96.2948 68.1015 94.9437 64.4731 92.1328 62.1899L66.0879 39.8621L92.1328 17.5344C96.1469 13.9163 96.5459 7.75805 93.032 3.65228C89.5182 -0.453479 83.3723 -1.01044 79.1776 2.39676L44.2983 32.2933C42.0878 34.1866 40.8154 36.9516 40.8154 39.8621C40.8154 42.7726 42.0878 45.5376 44.2983 47.4309L79.1776 77.3275Z" fill="black"/>
<path d="M85.112 106.312L70.1638 116.278C65.7038 119.267 64.4137 125.252 67.2463 129.813C70.0789 134.374 76.0157 135.872 80.6724 133.199V199.31H75.6896C70.1858 199.31 65.7241 203.772 65.7241 209.276C65.7241 214.78 70.1858 219.241 75.6896 219.241H105.586C111.09 219.241 115.552 214.78 115.552 209.276C115.552 203.772 111.09 199.31 105.586 199.31H100.603V114.603C100.603 110.929 98.5801 107.553 95.3405 105.819C92.1008 104.085 88.1699 104.275 85.112 106.312Z" fill="black"/>
<path d="M170.362 219.241C184.122 219.241 195.276 208.087 195.276 194.328V129.552C195.276 115.792 184.122 104.638 170.362 104.638H155.414C141.654 104.638 130.5 115.792 130.5 129.552V194.328C130.5 208.087 141.654 219.241 155.414 219.241H170.362ZM150.431 194.328V129.552C150.431 126.8 152.662 124.569 155.414 124.569H170.362C173.114 124.569 175.345 126.8 175.345 129.552V194.328C175.345 197.08 173.114 199.31 170.362 199.31H155.414C152.662 199.31 150.431 197.08 150.431 194.328Z" fill="black"/>
</svg>
