<svg width="283" height="315" viewBox="0 0 283 315" fill="none" xmlns="http://www.w3.org/2000/svg">
<path d="M252.331 86.2884C248.586 81.6708 241.824 80.9221 237.16 84.6086C232.495 88.295 231.661 95.0466 235.289 99.7573C252.02 120.798 261.083 146.911 260.983 173.793C260.997 237.956 210.331 290.676 146.218 293.209C82.1048 295.743 27.4368 247.186 22.3877 183.222C17.3387 119.258 63.7114 62.7252 127.428 55.1685L112.716 67.7848C108.34 71.7285 107.905 78.4407 111.735 82.9158C115.565 87.391 122.264 87.9981 126.836 84.2843L164.853 51.6981C167.263 49.6345 168.65 46.6207 168.65 43.4484C168.65 40.276 167.263 37.2623 164.853 35.1986L126.836 2.61242C123.904 -0.0302704 119.769 -0.874438 116.036 0.407485C112.303 1.68941 109.559 4.89563 108.869 8.78204C108.179 12.6684 109.652 16.6233 112.716 19.1119L129.112 33.162C53.0257 39.8629 -3.94033 105.85 0.535774 182.1C5.01188 258.349 69.3074 317.218 145.655 314.97C222.002 312.723 282.724 250.174 282.707 173.793C282.823 142.02 272.109 111.156 252.331 86.2884Z" fill="white"/>
<path d="M182.13 83.0948C184.004 85.2836 186.672 86.6375 189.546 86.8586C192.419 87.0796 195.263 86.1496 197.45 84.2733L235.468 51.6871C237.877 49.6235 239.264 46.6097 239.264 43.4374C239.264 40.2651 237.877 37.2513 235.468 35.1876L197.45 2.60144C194.519 -0.0412567 190.384 -0.885425 186.651 0.396499C182.917 1.67842 180.173 4.88465 179.483 8.77105C178.793 12.6575 180.266 16.6123 183.33 19.1009L211.707 43.4482L183.319 67.7847C178.765 71.685 178.232 78.5379 182.13 83.0948Z" fill="white"/>
<path d="M81.7586 217.241C75.7597 217.241 70.8965 222.104 70.8965 228.103C70.8965 234.102 75.7597 238.965 81.7586 238.965H114.345C120.344 238.965 125.207 234.102 125.207 228.103C125.207 222.104 120.344 217.241 114.345 217.241H108.914V124.914C108.913 120.909 106.708 117.229 103.177 115.339C99.6462 113.449 95.3616 113.656 92.0287 115.876L75.7356 126.739C70.8744 129.997 69.4683 136.52 72.5557 141.492C75.6431 146.463 82.114 148.095 87.1896 145.182V217.241H81.7586Z" fill="white"/>
<path d="M168.655 114.052C153.658 114.052 141.5 126.21 141.5 141.207V211.81C141.5 226.808 153.658 238.966 168.655 238.966H184.948C199.946 238.966 212.103 226.808 212.103 211.81V141.207C212.103 126.21 199.946 114.052 184.948 114.052H168.655ZM190.379 141.207V211.81C190.379 214.81 187.948 217.241 184.948 217.241H168.655C165.656 217.241 163.224 214.81 163.224 211.81V141.207C163.224 138.207 165.656 135.776 168.655 135.776H184.948C187.948 135.776 190.379 138.207 190.379 141.207Z" fill="white"/>
</svg>
