<svg width="500" height="500" viewBox="0 0 500 500" fill="none" xmlns="http://www.w3.org/2000/svg">
<path d="M200.72 351.309C191.121 351.309 183.408 343.596 183.408 333.997V165.502C183.408 155.903 191.121 148.19 200.72 148.19C210.319 148.19 218.032 155.903 218.032 165.502V333.997C217.861 343.424 210.147 351.309 200.72 351.309Z" fill="white"/>
<path d="M364.758 327.483C355.159 327.483 347.446 319.77 347.446 310.171V189.156C347.446 179.557 355.159 171.844 364.758 171.844C374.357 171.844 382.071 179.557 382.071 189.156V310.171C382.071 319.77 374.357 327.483 364.758 327.483Z" fill="white"/>
<path d="M122.386 320.456C112.787 320.456 105.074 312.742 105.074 303.143V196.184C105.074 186.585 112.787 178.872 122.386 178.872C131.985 178.872 139.698 186.585 139.698 196.184V303.143C139.698 312.742 131.985 320.456 122.386 320.456Z" fill="white"/>
<path d="M70.4491 103.966L56.9078 104.137C39.7669 105.166 35.1388 110.822 35.1388 128.82V223.952C35.1388 236.122 31.3678 244.521 25.5399 249.835C31.7107 255.663 35.1388 264.405 35.1388 275.375V370.336C35.1388 388.505 43.7093 393.99 60.8502 395.018L70.6205 395.19L70.4491 414.388H59.1361C30.168 414.388 15.7696 400.332 15.7696 372.05V275.375C15.7696 263.376 10.4559 257.377 0 257.377V242.293C10.6274 242.293 15.7696 236.122 15.7696 223.952V127.106C15.7696 98.9952 30.168 84.7682 59.1361 84.7682H70.4491V103.966Z" fill="white"/>
<path d="M429.379 103.623L442.921 103.795C460.062 104.823 465.204 110.651 465.204 128.82V223.952C465.204 236.122 468.975 244.521 474.803 249.835C468.632 255.663 465.204 264.405 465.204 275.375V370.336C465.204 388.505 456.291 393.819 438.978 394.847L429.208 395.018L429.379 414.559H440.692C469.661 414.559 484.059 400.504 484.059 372.221V275.375C484.059 263.376 489.373 257.377 500 257.377V242.293C489.373 242.293 484.059 236.122 484.059 223.952V127.106C484.059 98.9952 469.661 84.7682 440.692 84.7682H429.379V103.623Z" fill="white"/>
<path d="M292.938 387.648V111.679C303.908 107.908 311.793 97.4525 311.793 85.1111C311.793 69.6843 299.28 57 283.682 57C268.255 57 255.571 69.5128 255.571 85.1111C255.571 97.6239 263.798 108.423 275.283 111.851L274.597 387.476C263.627 391.247 255.571 401.703 255.571 414.045C255.571 429.472 268.084 442.156 283.682 442.156C299.109 442.156 311.793 429.643 311.793 414.045C311.793 401.875 303.908 391.419 292.938 387.648Z" fill="white"/>
</svg>
