<svg width="228" height="254" viewBox="0 0 228 254" fill="none" xmlns="http://www.w3.org/2000/svg">
<path d="M123.495 27.415L136.668 16.1192C140.186 12.9487 140.535 7.55225 137.456 3.95439C134.377 0.356523 128.991 -0.131539 125.316 2.85418L94.751 29.0524C92.814 30.7115 91.699 33.1345 91.699 35.6849C91.699 38.2354 92.814 40.6584 94.751 42.3175L125.316 68.5157C127.673 70.6403 130.997 71.319 133.998 70.2884C137 69.2578 139.206 66.6801 139.761 63.5555C140.315 60.431 139.131 57.2514 136.668 55.2507L124.831 45.1076C176.059 51.1784 213.346 96.6271 209.289 148.054C205.233 199.481 161.282 238.521 109.736 236.486C58.1893 234.45 17.4542 192.064 17.4662 140.478C17.3855 118.866 24.6717 97.8712 38.1235 80.9555C40.1054 78.5119 40.6196 75.1912 39.4697 72.2627C38.3197 69.3342 35.6833 67.2506 32.5683 66.8085C29.4533 66.3664 26.3413 67.634 24.4219 70.1269C8.5211 90.1194 -0.0926143 114.933 0.000751081 140.478C-0.0124123 201.884 48.804 252.171 110.184 253.979C171.563 255.787 223.255 208.461 226.857 147.161C230.458 85.8602 184.664 32.807 123.495 27.415V27.415Z" fill="white"/>
<path d="M68.5529 68.5157C70.9101 70.6403 74.2344 71.319 77.2357 70.2884C80.2371 69.2578 82.4432 66.6801 82.9979 63.5555C83.5526 60.431 82.3687 57.2514 79.9055 55.2507L57.0825 35.6849L79.9055 16.1192C83.4231 12.9487 83.7726 7.55225 80.6935 3.95439C77.6143 0.356523 72.2287 -0.131539 68.5529 2.85418L37.9883 29.0524C36.0512 30.7115 34.9363 33.1345 34.9363 35.6849C34.9363 38.2354 36.0512 40.6584 37.9883 42.3175L68.5529 68.5157Z" fill="white"/>
<path d="M73.7532 93.9149L60.6541 102.648C56.7459 105.267 55.6154 110.512 58.0975 114.509C60.5797 118.506 65.7821 119.818 69.8628 117.476V175.409H65.4964C60.6735 175.409 56.7637 179.319 56.7637 184.142C56.7637 188.965 60.6735 192.874 65.4964 192.874H91.6947C96.5176 192.874 100.427 188.965 100.427 184.142C100.427 179.319 96.5176 175.409 91.6947 175.409H87.3283V101.18C87.3277 97.9606 85.5553 95.0022 82.7164 93.4828C79.8775 91.9633 76.4328 92.1294 73.7532 93.9149Z" fill="white"/>
<path d="M148.457 192.874C160.515 192.874 170.289 183.1 170.289 171.042V114.28C170.289 102.222 160.515 92.4478 148.457 92.4478H135.358C123.301 92.4478 113.526 102.222 113.526 114.28V171.042C113.526 183.1 123.301 192.874 135.358 192.874H148.457ZM130.992 171.042V114.28C130.992 111.868 132.947 109.913 135.358 109.913H148.457C150.869 109.913 152.824 111.868 152.824 114.28V171.042C152.824 173.454 150.869 175.409 148.457 175.409H135.358C132.947 175.409 130.992 173.454 130.992 171.042Z" fill="white"/>
</svg>
