<svg width="512" height="512" viewBox="0 0 512 512" fill="none" xmlns="http://www.w3.org/2000/svg">
<g clip-path="url(#clip0)">
<path d="M506.513 124.12L387.879 5.486C387.878 5.485 387.876 5.483 387.874 5.482C384.467 2.076 379.697 0 374.634 0C359.616 0 33.034 0 18.732 0C8.387 0 0 8.387 0 18.732V493.269C0 503.613 8.387 512 18.732 512C41.295 512 471.085 512 493.269 512C503.614 512 512.001 503.613 512.001 493.268V137.366C512 132.398 510.027 127.634 506.513 124.12ZM156.098 37.463H355.903V148.286H156.098V37.463ZM400.45 474.537H111.55V316.935H400.45V474.537ZM474.537 474.537H437.914V298.204C437.914 287.859 429.527 279.472 419.182 279.472H92.818C82.473 279.472 74.086 287.859 74.086 298.204V474.537H37.463V37.463H118.634V167.018C118.634 177.363 127.021 185.75 137.366 185.75H374.634C384.979 185.75 393.366 177.363 393.366 167.018V63.954L474.537 145.125V474.537Z" fill="white"/>
<path d="M309.514 55.015C299.169 55.015 290.782 63.402 290.782 73.747V112.003C290.782 122.349 299.168 130.735 309.514 130.735C319.859 130.735 328.246 122.348 328.246 112.003V73.747C328.246 63.402 319.859 55.015 309.514 55.015Z" fill="white"/>
</g>
<defs>
<clipPath id="clip0">
<rect width="512" height="512" fill="white"/>
</clipPath>
</defs>
</svg>
