<svg width="48" height="48" viewBox="0 0 48 48" fill="none" xmlns="http://www.w3.org/2000/svg">
<path d="M10.8423 25.7615C9.98482 26.6513 8.9832 27.0962 7.8374 27.0962C6.3729 27.0962 5.20054 26.5671 4.32033 25.509C3.44011 24.4429 3 23.008 3 21.2044C3 20.0581 3.23523 19.008 3.70569 18.0541C4.18374 17.0922 4.8477 16.3467 5.69756 15.8176C6.54743 15.2806 7.50352 15.012 8.56585 15.012C9.65854 15.012 10.6298 15.3006 11.4797 15.8778C12.3295 16.4549 12.9897 17.2846 13.4602 18.3667C13.9306 19.4489 14.1696 20.6874 14.1772 22.0822V23.3687C14.1772 26.2866 13.4905 28.5792 12.1171 30.2465C10.7436 31.9138 8.79729 32.8036 6.27805 32.9158L5.46992 32.9279V30.0301L6.19837 30.018C9.05908 29.8818 10.607 28.4629 10.8423 25.7615ZM8.64553 24.4389C9.17669 24.4389 9.63198 24.2946 10.0114 24.006C10.3984 23.7174 10.6905 23.3687 10.8878 22.9599V21.5291C10.8878 20.3507 10.6753 19.4369 10.2504 18.7876C9.82547 18.1383 9.25637 17.8136 8.54309 17.8136C7.88293 17.8136 7.34038 18.1343 6.91545 18.7756C6.49052 19.4088 6.27805 20.2064 6.27805 21.1683C6.27805 22.1222 6.48293 22.9078 6.89268 23.525C7.31003 24.1343 7.89431 24.4389 8.64553 24.4389Z" fill="#29A826"/>
<path d="M17.0228 24.1503L17.9789 15.2525H27.2667V18.1503H20.6764L20.2667 21.9138C21.0482 21.4729 21.8791 21.2525 22.7594 21.2525C24.3377 21.2525 25.5745 21.7695 26.4699 22.8036C27.3653 23.8377 27.813 25.2846 27.813 27.1443C27.813 28.2745 27.5854 29.2886 27.1301 30.1864C26.6824 31.0762 26.0374 31.7695 25.1951 32.2665C24.3528 32.7555 23.3588 33 22.213 33C21.2114 33 20.2818 32.7876 19.4244 32.3627C18.5669 31.9299 17.8878 31.3246 17.387 30.5471C16.8938 29.7695 16.632 28.8838 16.6016 27.8898H19.8569C19.9252 28.6192 20.1642 29.1884 20.574 29.5972C20.9913 29.998 21.5339 30.1984 22.2016 30.1984C22.9453 30.1984 23.5182 29.9178 23.9203 29.3567C24.3225 28.7876 24.5236 27.986 24.5236 26.9519C24.5236 25.9579 24.2921 25.1964 23.8293 24.6673C23.3664 24.1383 22.71 23.8737 21.8602 23.8737C21.0786 23.8737 20.445 24.0902 19.9594 24.523L19.6407 24.8357L17.0228 24.1503Z" fill="#29A826"/>
<path d="M29.8732 18.6192C29.8732 17.5451 30.2033 16.6754 30.8634 16.01C31.5236 15.3367 32.3886 15 33.4585 15C34.5436 15 35.4163 15.3327 36.0764 15.998C36.7366 16.6553 37.0667 17.5491 37.0667 18.6794V19.5451C37.0667 20.6273 36.7366 21.497 36.0764 22.1543C35.4163 22.8116 34.5512 23.1403 33.4813 23.1403C32.4038 23.1403 31.5312 22.8116 30.8634 22.1543C30.2033 21.489 29.8732 20.5952 29.8732 19.4729V18.6192ZM32.0585 19.5451C32.0585 20.0261 32.1875 20.4148 32.4455 20.7114C32.7111 21 33.0564 21.1443 33.4813 21.1443C33.9062 21.1443 34.2439 20.996 34.4943 20.6994C34.7447 20.4028 34.8699 20.006 34.8699 19.509V18.6192C34.8699 18.1383 34.7447 17.7495 34.4943 17.4529C34.2439 17.1563 33.8986 17.008 33.4585 17.008C33.0412 17.008 32.7035 17.1563 32.4455 17.4529C32.1875 17.7415 32.0585 18.1463 32.0585 18.6673V19.5451ZM37.7951 28.4669C37.7951 27.3848 38.129 26.515 38.7967 25.8577C39.4645 25.1924 40.3295 24.8597 41.3919 24.8597C42.4694 24.8597 43.3382 25.1884 43.9984 25.8457C44.6661 26.495 45 27.3928 45 28.5391V29.4048C45 30.479 44.6737 31.3487 44.0211 32.014C43.3686 32.6713 42.4997 33 41.4146 33C40.322 33 39.4455 32.6673 38.7854 32.002C38.1252 31.3367 37.7951 30.4549 37.7951 29.3567V28.4669ZM39.9805 29.4048C39.9805 29.8457 40.1171 30.2224 40.3902 30.5351C40.6634 30.8477 41.0049 31.004 41.4146 31.004C42.3404 31.004 42.8033 30.4629 42.8033 29.3808V28.4669C42.8033 27.986 42.6743 27.6012 42.4163 27.3126C42.1583 27.016 41.8168 26.8677 41.3919 26.8677C40.9669 26.8677 40.6255 27.016 40.3675 27.3126C40.1095 27.6012 39.9805 27.998 39.9805 28.503V29.4048ZM34.1301 31.4489L32.5252 30.5351L40.6179 16.8517L42.2228 17.7655L34.1301 31.4489Z" fill="#29A826"/>
</svg>
