<svg version="1.1" xmlns="http://www.w3.org/2000/svg" viewBox="0 0 120.3359375 107.828125">
  <!-- svg-source:excalidraw -->
  <defs>
    <style>
      @font-face {
        font-family: "Virgil";
        src: url("https://excalidraw.com/FG_Virgil.woff2");
      }
      @font-face {
        font-family: "Cascadia";
        src: url("https://excalidraw.com/Cascadia.woff2");
      }
    </style>
  </defs>
  <rect x="0" y="0" width="120.3359375" height="107.828125" fill="#ffffff"></rect><g transform="translate(10 10) rotate(0 50.16796875 43.9140625)"><path d="M48.91898009624933 -0.9081534484113618 C57.65886962104818 -1.657568954469982, 69.68954347474869 1.6183179127197622, 77.45706365745089 6.168722843244105 C85.22458384015309 10.719127773768447, 91.80423935123761 19.061654057502306, 95.52410119246248 26.394276134734692 C99.24396303368735 33.726898211967075, 101.07539970523933 42.382908960245175, 99.77623470480015 50.164455306638416 C98.47706970436096 57.94600165303166, 93.67255897075854 67.18651410677647, 87.72911118982732 73.08355421309416 C81.7856634088961 78.98059431941185, 72.80146916596124 83.37419937413006, 64.11554801921282 85.54669594454452 C55.429626872464404 87.71919251495899, 44.244155857568835 88.38187549439813, 35.6135843093368 86.11853363558092 C26.983012761104767 83.8551917767637, 18.127868070870694 78.00127832375654, 12.332118729820607 71.96664479164122 C6.53636938877052 65.9320112595259, 1.950508679816392 57.55652479130865, 0.839088263036281 49.910732442889014 C-0.2723321537438299 42.26494009446938, 1.7948334719221624 33.2923505222543, 5.663596229139941 26.091890701123408 C9.53235898635772 18.891430879992512, 15.909918573413098 10.926667326627655, 24.051664806342952 6.707973516103635 C32.1934110392728 2.489279705579615, 48.48449542389563 1.468626816700187, 54.51407362671907 0.7797278379792871 C60.543651829542505 0.09082885925838724, 60.27777814501401 1.9755990480010452, 60.229134023283564 2.574579643778236 M44.966319662061935 1.1962964785549133 C53.149116361495395 0.0686442464011836, 63.3167591378028 2.674290724618322, 71.15088352054414 5.85546415437139 C78.98500790328549 9.036637584124458, 86.96273678979713 13.697418977437355, 91.97106595851 20.28333705707332 C96.97939512722286 26.869255136709288, 101.10305505061199 37.174166380295105, 101.20085853282134 45.37097263218719 C101.2986620150307 53.567778884079274, 98.08517886148573 62.73722308649659, 92.55788685176614 69.46417456842582 C87.03059484204655 76.19112605035505, 76.53024361599721 82.56060817935892, 68.03710647450382 85.73268152376255 C59.54396933301043 88.90475486816618, 50.52147970645249 90.32950045073352, 41.599064002805825 88.49661463484762 C32.67664829915916 86.66372881896172, 21.26813269480117 80.60716013140447, 14.50261225262382 74.7353666284471 C7.737091810446468 68.86357312548972, 2.862706910473869 60.97123985161152, 1.0059413497417111 53.26585361710333 C-0.8508242109904469 45.56046738259514, 0.5396293915154029 35.68575854554831, 3.362018888230871 28.503049221397955 C6.184408384946339 21.320339897247603, 11.066945858271122 14.62275423807872, 17.94027833003452 10.16959767220122 C24.813610801797918 5.716441106323722, 40.32279075443997 3.46508776705335, 44.602013718811264 1.784109826132962 C48.88123668318256 0.10313188521257399, 43.736177405048544 -0.5508763407960195, 43.61561611626228 0.08373002667889295" stroke="#ffffff" stroke-width="1" fill="none"></path></g></svg>