<svg version="1.1" xmlns="http://www.w3.org/2000/svg" viewBox="0 0 120.3359375 107.828125">
  <!-- svg-source:excalidraw -->
  <defs>
    <style>
      @font-face {
        font-family: "Virgil";
        src: url("https://excalidraw.com/FG_Virgil.woff2");
      }
      @font-face {
        font-family: "Cascadia";
        src: url("https://excalidraw.com/Cascadia.woff2");
      }
    </style>
  </defs>
  <rect x="0" y="0" width="120.3359375" height="107.828125" fill="#ffffff"></rect><g transform="translate(10 10) rotate(0 50.16796875 43.9140625)"><path d="M35.093918181527 1.317989374374413 C43.053561350743436 -1.615838559807306, 53.7629771215921 -1.164996311240365, 62.52711057244885 0.8381978401177292 C71.2912440233056 2.8413919914758234, 81.34752916749011 7.541502789293432, 87.6787188866675 13.337154282522977 C94.00990860584488 19.132805775752523, 99.12685097996321 27.59867210742825, 100.51424888751316 35.612106799495 C101.90164679506312 43.625541491561755, 99.6784095562942 54.07141674459631, 96.00310633196719 61.41776243492348 C92.32780310764018 68.76410812525064, 86.08323372309533 75.4242460878927, 78.46242954155113 79.69018094145801 C70.84162536000693 83.95611579502332, 59.50310813171464 86.70858306056873, 50.27828124270194 87.01337155631532 C41.05345435368923 87.31816005206191, 30.793888802047462 85.42273649580315, 23.113468207474927 81.5189119159376 C15.433047612902392 77.61508733607204, 7.952224531917025 70.65568220646533, 4.195757675266719 63.59042407712196 C0.43929081861641306 56.52516594777859, -0.7668840949655464 47.12846637776741, 0.5746670675730883 39.12736313987739 C1.916218230111723 31.12625990198737, 5.071952130016835 22.13822731483136, 12.245064650498527 15.583804649781854 C19.41817717098022 9.029381984732346, 36.616894060735476 2.246174642087405, 43.61334219046324 -0.19917285041966437 C50.60979032019101 -2.6445203429267337, 53.806516643714126 0.24595400496500963, 54.22375342886513 0.911719694739439 M37.64680449653368 -0.08436764426853216 C45.68739674917173 -2.4206057190918138, 58.16566540613445 -0.5247569359426674, 66.6199623270823 2.16101495979985 C75.07425924803016 4.846786855542367, 82.97883860544007 10.045203722463349, 88.3725860222208 16.030263730186572 C93.76633343900153 22.015323737909796, 98.02254122957271 30.353407801523925, 98.9824468277667 38.07137500613919 C99.94235242596068 45.789342210754455, 97.9422287329534 55.126820899383844, 94.13201961138475 62.33806695787817 C90.3218104898161 69.5493130163725, 83.93609679223007 77.20607888643343, 76.12119209835478 81.33885135710516 C68.30628740447949 85.47162382777688, 56.64787324450638 87.22722730689378, 47.242591448132984 87.13470178190848 C37.83730965175959 87.04217625692317, 26.95724518748517 85.38280000422982, 19.689501320114402 80.78369820719331 C12.421757452743634 76.1845964101568, 6.685220899884246 67.06837481657927, 3.636128243908381 59.540090999689404 C0.5870355879325153 52.011807182799544, -0.4208942002746039 43.07755453620387, 1.3949453842592092 35.61399530585416 C3.210784968793022 28.15043607550445, 8.731129894663674 20.426170961260063, 14.53116575111126 14.75873561759115 C20.331201607558846 9.091300273922236, 32.191904273259674 3.5275227844596886, 36.195160522944725 1.609383243840675 C40.19841677262978 -0.3087562967783388, 37.94902136032458 2.7654602432257227, 38.55070324922156 3.249898373877066" stroke="#000000" stroke-width="1" fill="none"></path></g></svg>