<svg version="1.1" xmlns="http://www.w3.org/2000/svg" viewBox="0 0 120.3359375 107.828125">
  <!-- svg-source:excalidraw -->
  <defs>
    <style>
      @font-face {
        font-family: "Virgil";
        src: url("https://excalidraw.com/FG_Virgil.woff2");
      }
      @font-face {
        font-family: "Cascadia";
        src: url("https://excalidraw.com/Cascadia.woff2");
      }
    </style>
  </defs>
  <rect x="0" y="0" width="120.3359375" height="107.828125" fill="#ffffff"></rect><g transform="translate(10 10) rotate(0 50.16796875 43.9140625)"><path d="M36.8727981061221 1.2516946229009491 C45.063260494267375 -1.38025941058978, 56.539695685204016 -0.38722425476496314, 65.29379570016539 2.173322289869297 C74.04789571512677 4.733868834503557, 83.57011451926387 10.55626935196295, 89.39739819589035 16.614973890706512 C95.22468187251683 22.673678429450074, 99.38459819162426 30.713731861609897, 100.25749775992423 38.52554952233067 C101.1303973282242 46.33736718305144, 98.66425090275004 56.22276174138752, 94.63479560569016 63.48587985503114 C90.60534030863028 70.74899796867476, 83.78515663757632 78.08646449750378, 76.08076597756495 82.10425820419239 C68.37637531755358 86.122051910881, 57.47532853973535 87.82355643481274, 48.40845164562194 87.5926420951628 C39.341574751508524 87.36172775551286, 29.192262506634695 85.06267018459681, 21.679504612884482 80.71877216629271 C14.16674671913427 76.3748741479886, 6.720506012863126 69.04369601618271, 3.3319042831206716 61.52925398533821 C-0.056697446621782444 54.01481195449371, -0.48825553632338026 43.67223468764468, 1.3478942344297593 35.632119981225735 C3.1840440051828987 27.592005274806787, 7.5205617955347615 19.05189848699858, 14.34880290763951 13.288565746824524 C21.177044019744258 7.525233006650466, 36.4460727490267 2.9999430566026213, 42.317340907058245 1.052123540181384 C48.18860906508979 -0.8956959762398533, 49.28476707192672 1.1295293729890072, 49.57641185582879 1.6016486482971004 M69.38040500285884 2.648710429908931 C77.38627852697074 4.7432440223019, 86.52351219762468 12.117362915451746, 91.79204501611248 18.787866009162567 C97.06057783460028 25.458369102873387, 101.097343610642 34.39489082992363, 100.99160191378559 42.671728992173854 C100.88586021692917 50.948567154424076, 96.10442338842115 61.32922202202332, 91.15759483497402 68.44889498266389 C86.21076628152689 75.56856794330444, 79.48891794062398 82.42517842777771, 71.31063059310281 85.38976675601722 C63.13234324558165 88.35435508425674, 51.28403727463642 87.50602893764616, 42.08787074984705 86.23642495210099 C32.89170422505768 84.96682096655582, 22.84636885843404 82.63187080492261, 16.1336314443666 77.77214284274618 C9.42089403029916 72.91241488056974, 4.140359252295161 64.81261278704564, 1.811446265442413 57.0780571790424 C-0.5174667214103343 49.34350157103917, -0.5276797289414539 39.25728742173524, 2.1601535232501163 31.364809194726774 C4.8479867754416865 23.472330967718303, 11.089495971394719 14.870008593363472, 17.938445778591834 9.723187816991576 C24.78739558578895 4.576367040619679, 34.48700247241861 1.6873492403552863, 43.2538523664328 0.4838845364953883 C52.020702260446996 -0.7195801673645097, 66.20439635038292 1.722042224279646, 70.53954514267701 2.5023995938321875 C74.8746939349711 3.282756963384729, 69.54185336399786 4.345136685024372, 69.26474512019735 5.166028753810636" stroke="none" stroke-width="0" fill="#40c057"></path><path d="M29.69517560305314 4.950667868431005 C37.28387290760431 0.9826223635913469, 48.420517247746936 -1.4778890362968204, 57.37498400419253 -0.534417417152369 C66.32945076063811 0.4090542019920823, 76.46103522427906 5.268785377137939, 83.42197614172667 10.611497583297712 C90.38291705917429 15.954209789457487, 96.55433603258071 23.88267138445848, 99.14062950887819 31.52185581980627 C101.72692298517568 39.161040255154056, 101.48831356040345 48.70799354542925, 98.93973699951155 56.446604195384445 C96.39116043861965 64.18521484533964, 90.76282616365708 72.93838852573671, 83.84917014352675 77.95351971953744 C76.93551412339642 82.96865091333817, 66.7205880975688 85.55935349309034, 57.457800878729515 86.53739135818884 C48.195013659890236 87.51542922328734, 36.681545562068976 87.13326889882586, 28.27244683049106 83.82174691012843 C19.863348098913143 80.51022492143099, 11.777903245225502 73.32877224516663, 7.003208489262015 66.66825942600425 C2.2285137332985263 60.00774660684188, -0.7303842011845465 51.72486868753016, -0.3757217052898696 43.858669995154145 C-0.021059209395192624 35.99247130277813, 3.3049553115319954 26.41828307279895, 9.131183464630077 19.471067271748144 C14.957411617728159 12.523851470697338, 29.48705115653032 5.130581683462493, 34.581647213298616 2.1753751888493014 C39.67624327006691 -0.7798313057638904, 39.55426148869561 1.121393910618989, 39.698759805239845 1.7398283040689932 M73.42924857032381 6.230938418355343 C81.61773809433667 9.001750774794102, 89.48837909087564 14.88096941364104, 93.92413727054529 21.394460681289807 C98.35989545021494 27.907951948938575, 100.76572250790915 37.14176223423729, 100.04379764834165 45.31188602424795 C99.32187278877416 53.4820098142586, 94.73189588203064 63.87874401109974, 89.59258811314035 70.41520342135377 C84.45328034425006 76.95166283160779, 77.47881306487876 81.56973343977837, 69.2079510349999 84.5306424857721 C60.93708900512103 87.49155153176584, 49.05736929540191 89.76348664131825, 39.96741593386716 88.18065769731618 C30.877462572332405 86.5978287533141, 21.076053783818676 80.89587596520813, 14.66823086579138 75.03366882175965 C8.260407947764083 69.17146167831116, 3.4347996545251505 60.85255642712525, 1.5204784257033737 53.00741483662525 C-0.39384280311840314 45.16227324612525, 0.10965755545919587 35.56797051387063, 3.1823034928607186 27.962819278759632 C6.254949430262242 20.357668043648637, 12.887608234691726 11.919127885670797, 19.95635405011251 7.376507425959275 C27.025099865533292 2.8338869662477544, 36.84474017870081 1.1523140025753094, 45.59477838538541 0.7070965204905093 C54.34481659207001 0.26187903840570925, 67.67676057705668 3.8710201955632186, 72.45658329022011 4.705202533450475 C77.23640600338354 5.539384871337731, 74.48548965609574 5.08746081879799, 74.273714664366 5.712190547814046" stroke="#000000" stroke-width="1" fill="none"></path></g></svg>