<svg width="250" height="263" viewBox="0 0 250 263" fill="none" xmlns="http://www.w3.org/2000/svg">
<path d="M97 199.811V106H149V262H97V199.811Z" fill="#268DEF" stroke="black"/>
<path d="M195 199.811V106H249V262H195V199.811Z" fill="#268DEF" stroke="black"/>
<path fill-rule="evenodd" clip-rule="evenodd" d="M106.855 96.168L60.2946 94.3743C60.2946 94.3743 64.7913 111.156 67.789 122.344C70.7868 133.532 92.4911 133.712 117.187 127.095C141.882 120.477 160.589 109.469 157.591 98.2816L150.096 70.312L110.671 95.1453C109.435 95.8368 108.046 96.2091 106.63 96.2281L106.855 96.168ZM90.8419 23.8355C90.0503 23.8071 89.2681 24.0167 88.5968 24.437L9.97076 74.0436C9.22879 74.5033 8.65447 75.1887 8.33271 75.9983C8.01095 76.8079 7.95882 77.6989 8.18404 78.5394C8.40926 79.3799 8.89987 80.1254 9.58334 80.6657C10.2668 81.206 11.1068 81.5123 11.9793 81.5395L33.0477 82.4893L38.3538 102.292C35.4958 105.096 34.24 109.39 35.3192 113.417C35.8888 115.543 36.9597 117.294 38.3897 118.59C37.9113 120.397 37.7474 122.479 38.317 124.605L46.0513 153.47C47.7 159.623 70.1505 153.607 68.5017 147.454L60.7675 118.59C60.1979 116.464 59.127 114.712 57.697 113.417C58.1754 111.61 58.3393 109.527 57.7697 107.402C56.6305 103.15 53.4562 100.284 49.579 99.284L45.2322 83.0616L104.71 85.4709C105.444 85.5142 106.342 85.2736 106.955 84.8694L185.581 35.2628C186.323 34.8031 186.898 34.1177 187.219 33.3081C187.541 32.4985 187.593 31.6076 187.368 30.767C187.143 29.9265 186.652 29.181 185.969 28.6407C185.285 28.1004 184.445 27.7941 183.573 27.7669L90.7596 23.9774L90.8419 23.8355ZM99.4245 59.9073C93.2506 61.5616 87.5397 60.4537 86.7004 57.3211C85.861 54.1885 90.2528 50.3737 96.4267 48.7194C102.601 47.0651 108.311 48.173 109.151 51.3056C109.99 54.4382 105.598 58.253 99.4245 59.9073Z" fill="#D2CBCB"/>
</svg>
    