<svg width="266" height="283" viewBox="0 0 266 283" fill="none" xmlns="http://www.w3.org/2000/svg">
<path d="M266 198L118 283L118 113L266 198Z" fill="#268DEF"/>
<path fill-rule="evenodd" clip-rule="evenodd" d="M119.852 107.866L67.6288 105.854C67.6288 105.854 72.6724 124.677 76.0349 137.226C79.3973 149.775 103.742 149.976 131.441 142.554C159.141 135.132 180.123 122.785 176.76 110.237L168.354 78.8647L124.133 106.719C122.747 107.494 121.189 107.912 119.601 107.933L119.852 107.866ZM101.892 26.7348C101.004 26.703 100.127 26.9381 99.3737 27.4095L11.1836 83.0503C10.3514 83.5659 9.7072 84.3346 9.34629 85.2427C8.98539 86.1508 8.92693 87.1501 9.17954 88.0929C9.43216 89.0357 9.98245 89.8719 10.749 90.4779C11.5157 91.0838 12.4579 91.4275 13.4364 91.4579L37.0676 92.5233L43.0191 114.735C39.8135 117.88 38.405 122.696 39.6154 127.213C40.2543 129.598 41.4555 131.562 43.0593 133.015C42.5228 135.042 42.339 137.378 42.9779 139.762L51.6529 172.138C53.5023 179.04 78.6836 172.292 76.8342 165.39L68.1592 133.015C67.5203 130.63 66.3192 128.666 64.7153 127.213C65.2518 125.186 65.4356 122.85 64.7968 120.466C63.519 115.697 59.9586 112.482 55.6098 111.361L50.7342 93.1652L117.447 95.8676C118.27 95.9161 119.277 95.6463 119.965 95.1929L208.155 39.5521C208.988 39.0365 209.632 38.2678 209.993 37.3597C210.354 36.4516 210.412 35.4523 210.159 34.5095C209.907 33.5667 209.356 32.7305 208.59 32.1245C207.823 31.5185 206.881 31.1749 205.902 31.1445L101.8 26.894L101.892 26.7348ZM111.518 67.1944C104.594 69.0499 98.188 67.8073 97.2466 64.2937C96.3051 60.78 101.231 56.5011 108.156 54.6456C115.081 52.7901 121.486 54.0327 122.428 57.5463C123.369 61.06 118.443 65.3389 111.518 67.1944Z" fill="#D2CBCB"/>
</svg>
