<?xml version="1.0" encoding="iso-8859-1"?>
<!-- Generator: Adobe Illustrator 19.0.0, SVG Export Plug-In . SVG Version: 6.00 Build 0)  -->
<svg version="1.1" id="Capa_1" xmlns="http://www.w3.org/2000/svg" xmlns:xlink="http://www.w3.org/1999/xlink" x="0px" y="0px"
	 viewBox="0 0 57 57" style="enable-background:new 0 0 57 57;" xml:space="preserve">
<path d="M56.575,27.683l-27-19c-0.306-0.216-0.703-0.242-1.036-0.07C28.208,8.784,28,9.127,28,9.5v17.777L1.575,8.694
	C1.27,8.481,0.872,8.453,0.539,8.625C0.208,8.797,0,9.14,0,9.513v37.975c0,0.373,0.208,0.716,0.539,0.888
	C0.685,48.45,0.843,48.487,1,48.487c0.202,0,0.403-0.062,0.575-0.182L28,29.723V47.5c0,0.373,0.208,0.716,0.539,0.888
	C28.685,48.463,28.843,48.5,29,48.5c0.202,0,0.404-0.062,0.575-0.183l27-19C56.842,29.131,57,28.825,57,28.5
	S56.842,27.869,56.575,27.683z M2,45.562V11.439L26.262,28.5L2,45.562z M30,45.573V11.427L54.263,28.5L30,45.573z" fill="#FFFFFF"/>
<g>
</g>
<g>
</g>
<g>
</g>
<g>
</g>
<g>
</g>
<g>
</g>
<g>
</g>
<g>
</g>
<g>
</g>
<g>
</g>
<g>
</g>
<g>
</g>
<g>
</g>
<g>
</g>
<g>
</g>
</svg>
