<svg x="0" y="0" viewBox="0 -20 395.94667 395" xmlns="http://www.w3.org/2000/svg">
<path d="m269.652344.472656c-16.9375 0-30.71875 13.78125-30.71875 30.71875v293.546875c0 16.941407 13.78125 30.722657 30.71875 30.722657 16.941406 0 30.722656-13.78125 30.722656-30.722657v-293.546875c0-16.9375-13.78125-30.71875-30.722656-30.71875zm17.066406 324.265625c0 9.414063-7.652344 17.070313-17.066406 17.070313-9.414063 0-17.066406-7.65625-17.066406-17.070313v-293.546875c0-9.410156 7.652343-17.066406 17.066406-17.066406 9.414062 0 17.066406 7.65625 17.066406 17.066406zm0 0" fill="#FFFFFF"/>
    <path d="m365.226562.472656c-16.941406 0-30.71875 13.78125-30.71875 30.71875v293.546875c0 16.941407 13.777344 30.722657 30.71875 30.722657 16.941407 0 30.71875-13.78125 30.71875-30.722657v-293.546875c0-16.9375-13.777343-30.71875-30.71875-30.71875zm17.066407 324.265625c0 9.414063-7.652344 17.070313-17.066407 17.070313-9.414062 0-17.066406-7.65625-17.066406-17.070313v-293.546875c0-9.410156 7.652344-17.066406 17.066406-17.066406 9.414063 0 17.066407 7.65625 17.066407 17.066406zm0 0" fill="#FFFFFF"/>
    <path d="m211.859375 165.675781-183.746094-106.671875c-5.867187-3.402344-12.867187-3.417968-18.734375-.035156-5.871094 3.386719-9.378906 9.449219-9.378906 16.222656v213.339844c0 6.777344 3.507812 12.835938 9.371094 16.21875 2.929687 1.683594 6.140625 2.527344 9.347656 2.527344 3.230469 0 6.453125-.855469 9.394531-2.5625l183.746094-106.667969c5.839844-3.390625 9.320313-9.441406 9.320313-16.191406 0-6.746094-3.484376-12.796875-9.320313-16.179688zm-6.851563 20.566407-183.746093 106.667968c-2.300781 1.324219-4.308594.449219-5.074219.007813-.761719-.4375-2.535156-1.742188-2.535156-4.386719v-213.339844c0-2.640625 1.773437-3.949218 2.539062-4.386718.460938-.265626 1.386719-.695313 2.554688-.695313.753906 0 1.613281.179687 2.515625.699219l183.746093 106.675781c2.273438 1.320313 2.519532 3.5 2.519532 4.375s-.246094 3.058594-2.519532 4.382813zm0 0" fill="#FFFFFF"/>
</svg>